<?xml version="1.0" encoding="utf-8"?>
<!-- Generator: Adobe Illustrator 27.5.0, SVG Export Plug-In . SVG Version: 6.00 Build 0)  -->
<svg version="1.1" id="Capa_1" xmlns="http://www.w3.org/2000/svg" xmlns:xlink="http://www.w3.org/1999/xlink" x="0px" y="0px"
	 viewBox="0 0 2122 2122" style="enable-background:new 0 0 2122 2122;" xml:space="preserve">
<g>
	<path style="fill:#FFFAE3;" d="M1529.577,933.039c0-2.695-0.059-5.199-0.181-7.547V504.853h-73.407
		c-10.996-86.883-183.784-155.925-395.334-155.925c-211.55,0-384.337,69.042-395.338,155.925h-73.403v420.693
		c-0.122,2.329-0.181,4.819-0.181,7.494c0,123.246-71.551,123.246-71.551,123.246s71.551,3.126,71.551,123.251
		c0,2.641,0.059,5.096,0.181,7.391v420.742h72.847c0,90.976,177.251,164.725,395.894,164.725
		c218.649,0,395.895-73.748,395.895-164.725h72.847v-420.79c0.122-2.28,0.181-4.721,0.181-7.342
		c0-120.125,71.561-123.251,71.561-123.251S1529.577,1056.285,1529.577,933.039z"/>
	<g>
		<g>
			<path style="fill:#4B3527;" d="M1060.651,391.002c97.344,0,188.873,15.016,257.729,42.282
				c67.605,26.769,85.118,54.038,86.162,62.285c4.064,32.134,31.398,56.226,63.788,56.226h11.41v369.483
				c0,1.035,0.024,2.07,0.075,3.106c0.066,1.376,0.1,2.945,0.1,4.67c0,57.307,12.94,98.649,31.617,127.908
				c-18.641,29.213-31.617,70.119-31.617,126.286c0,1.625-0.032,3.104-0.098,4.395c-0.051,1.062-0.078,2.122-0.078,3.184v369.616
				h-10.826c-35.51,0-64.299,28.786-64.299,64.297c0,8.965-19.547,35.612-79.978,60.757
				c-68.455,28.485-164.676,44.821-263.987,44.821c-99.305,0-195.523-16.336-263.978-44.821
				c-60.431-25.144-79.978-51.792-79.978-60.757c0-35.51-28.789-64.297-64.299-64.297h-10.821v-369.575
				c0-1.147-0.032-2.297-0.09-3.442c-0.063-1.152-0.095-2.558-0.095-4.178c0-56.168-12.977-97.073-31.617-126.286
				c18.679-29.259,31.617-70.601,31.617-127.908c0-1.586,0.036-3.092,0.109-4.604c0.051-1.04,0.076-2.08,0.076-3.123V551.795h11.4
				c32.387,0,59.719-24.087,63.788-56.219c1.045-8.248,18.563-35.52,86.172-62.292
				C871.787,406.018,963.314,391.002,1060.651,391.002 M1060.651,326.706c-218.152,0-396.328,71.195-407.675,160.793h-75.697
				v433.828c-0.117,2.407-0.185,4.969-0.185,7.727c0,127.097-73.788,127.097-73.788,127.097s73.788,3.221,73.788,127.098
				c0,2.721,0.058,5.257,0.185,7.62v433.872h75.117c0,93.821,182.785,169.874,408.255,169.874
				c225.484,0,408.264-76.053,408.264-169.874h75.122v-433.913c0.117-2.356,0.176-4.875,0.176-7.579
				c0-123.877,73.792-127.098,73.792-127.098s-73.792,0-73.792-127.097c0-2.775-0.059-5.362-0.176-7.776V487.498h-75.707
				C1456.993,397.901,1278.817,326.706,1060.651,326.706L1060.651,326.706z"/>
		</g>
	</g>
	<g>
		<path style="fill:#AF5A48;" d="M1075.773,474.322c-17.037-5.045-35.464-6.57-55.58-3.277
			c-190.257,31.221-269.096,306.731-275.851,343.72c41.632,23.537,84.796,45.217,129.049,62.238
			c12.984,4.955,183.406,38.608,265.915,15.444l64.832-124.077L1075.773,474.322z"/>
		<g>
			<path style="fill:#EFA88B;" d="M1230.337,989.53c-60.811-21.707-50.684-155.694-50.684-155.694l-141.239,23.043
				c0,0,10.11,110.944-50.694,132.651c-5.851,2.088-75.444,98.962,50.694,98.962
				C1164.557,1088.492,1234.792,991.104,1230.337,989.53z"/>
			<path style="fill:#DB9A80;" d="M1144.241,959.816c44.423,42.46,77.212,25.627,77.212,25.627l0.039-0.046
				c-50.903-28.838-41.807-151.56-41.807-151.56l-141.27,23.043c0,0,2.044,24.516-1.047,47.559
				C1037.367,904.437,1099.839,917.377,1144.241,959.816z"/>
		</g>
		<path style="fill:#EFA88B;" d="M1264.829,527.992c-30.846-107.046-165.918-107.046-165.918-107.046s-143.153-2.02-165.945,107.046
			c-47.873,229.447,44.679,343.739,115.611,343.739c79.781,0,145.963-41.427,183.002-73.256
			c32.655-28.085,11.082,3.476,22.624-23.539C1265.774,747.937,1295.65,635.076,1264.829,527.992z"/>
		<g>
			<g>
				<path style="fill:#F47E65;" d="M970.322,608.245c57.508-12.543,142.866-42.898,167.594-75.42
					c16.424,63.413,73.398,57.245,64.175,186.413c-5.7,79.69-59.617,116.82-62.786,173.209c19.269-4.319,38.265-9.452,56.779-15.613
					c8.521-22.784,11.415-38.619,11.415-38.619c3.53,5.589,0.945,23.535-2.236,35.452c37.04-12.643,122.942-48.996,155.928-71.537
					c-30.241-87.41-33.169-102.586-37.298-238.475c-4.275-140.281-134.381-135.253-134.381-135.253s-69.68-107.639-219.189-54.219
					C816.297,429.19,818.185,568.158,629.186,600.043c-58.843,9.968-95.093-7.503-95.093-7.503
					c12.894,19.069,26.024,38.039,39.169,56.971c6.143-0.94,12.017-2.022,17.22-3.232c0,0-5.452,2.112-15.055,6.344
					c6.845,9.992,13.776,19.927,20.572,30.019c24.334,36.083,49.208,65.978,83.943,93.819
					c83.571,66.976,189.582,98.881,189.582,98.881c11.425-46.626,25.398-110.973,33.89-164.892
					c13.929-88.842,47.661-110.406,47.661-110.406l46.949-26.68C992.247,591.137,970.322,608.245,970.322,608.245z"/>
				<g>
					<g>
						<path style="fill:#C2C4C6;" d="M1137.917,532.825c16.424,63.413,73.398,57.245,64.175,186.413
							c-5.7,79.69-59.617,116.82-62.786,173.209c7.203-1.63,14.404-3.384,21.515-5.225c5.637-21.379,20.575-61.751,32.433-86.182
							c53.3-110.34,21.033-188.707-16.195-238.563c-32.404-43.329-1.676-108.905,9.686-129.3
							c-8.804,15.355-26.463,48.976-47.03,81.232c-24.589,38.711-169.392,93.836-169.392,93.836
							C1027.83,595.702,1113.188,565.347,1137.917,532.825z"/>
						<path style="fill:#C2C4C6;" d="M1186.745,433.177c1.715-3.052,2.767-4.774,2.767-4.774S1188.503,430.171,1186.745,433.177z"/>
						<path style="fill:#C2C4C6;" d="M869.524,875.341c11.381-46.667,25.398-110.934,33.89-164.892
							c13.929-88.842,47.661-110.406,47.661-110.406c-31.739,14.224-52.762,48.306-61.534,128.761
							c-5.961,54.689-15.861,113.682-21.568,145.857C868.467,874.932,868.954,875.115,869.524,875.341z"/>
						<path style="fill:#C2C4C6;" d="M835.625,487.018c0,0,27.632-38.757,60.901-47.983c33.169-9.223,59.064-49.829,103.307-44.287
							c44.28,5.544,45.203,27.675,45.203,27.675s-39.279-18.448-102.404,6.431C899.044,446.054,860.543,485.16,835.625,487.018z"/>
						<path style="fill:#C2C4C6;" d="M621.556,719.63c73.398-31.647,150.464-97.385,150.464-97.385s-79.922,40.733-168.34,71.824
							C609.561,702.807,615.378,711.352,621.556,719.63z"/>
					</g>
				</g>
			</g>
			<g>
				<g>
					<path style="fill:#EEECEC;" d="M984.169,785.732c9.359,28.507,34.192,49.072,63.748,49.072
						c29.505,0,54.333-20.565,63.695-49.072H984.169z"/>
					<g>
						<g>
							
								<path style="fill:none;stroke:#402320;stroke-width:11.5208;stroke-linecap:round;stroke-linejoin:round;stroke-miterlimit:10;" d="
								M979.92,644.734c0.984,0.412-20.73-8.994-34.024,11.208"/>
							<g>
								<g>
									<path style="fill:#1E0D0A;" d="M971.75,669.229c-7.671,0-13.931,6.253-13.931,13.949c0,7.705,6.26,13.907,13.931,13.907
										c7.659,0,13.929-6.202,13.929-13.907C985.679,675.482,979.409,669.229,971.75,669.229z"/>
									<path style="fill:#1E0D0A;" d="M1125.522,669.229c-7.674,0-13.91,6.253-13.91,13.949c0,7.705,6.236,13.907,13.91,13.907
										c7.668,0,13.924-6.202,13.924-13.907C1139.446,675.482,1133.191,669.229,1125.522,669.229z"/>
								</g>
								
									<path style="fill:none;stroke:#402320;stroke-width:11.5208;stroke-linecap:round;stroke-linejoin:round;stroke-miterlimit:10;" d="
									M1117.374,644.734c0,0,20.88-8.77,33.985,11.208"/>
							</g>
						</g>
						
							<path style="fill:none;stroke:#D5D7D8;stroke-width:8.2342;stroke-linecap:round;stroke-linejoin:round;stroke-miterlimit:10;" d="
							M1023.467,750.008c0,0,2.841,5.678,17.084,5.678c14.226,0,16.246-5.678,16.246-5.678"/>
					</g>
				</g>
				<path style="fill:#EFA88B;" d="M1198.993,701.45c2.446,4.363,6.104,8.151,10.813,10.809
					c13.605,7.729,30.974,2.959,38.706-10.672c7.688-13.668,2.911-31.013-10.718-38.762c-5.827-3.277-27.763-12.906-39.196,10.448"
					/>
			</g>
		</g>
		<path style="fill:#A8ADBF;" d="M899.817,1540.96h393.762c9.25-140.9,30.738-525.459-9.53-538.048
			c-15.503-4.863-37.028-7.43-53.646-13.382c0,0-86.55,69.534-177.75,69.534c-91.251,0-64.859-69.534-64.859-69.534
			s-39.873,4.139-54.188,23.074C882.151,1080.579,902.927,1271.467,899.817,1540.96z"/>
		<g>
			<path style="fill:#E09E83;" d="M729.681,1469.382c40.987-6.234,153.748-147.994,170.284-252.432h-91.061
				c0,0-70.525,130.586-104.394,173.124C690.657,1407.468,688.668,1475.623,729.681,1469.382z"/>
			<g>
				<path style="fill:#979CAC;" d="M759.708,1271.952l159.209,53.059c0,0,19.305-83.995,23.825-96.857
					c46.107-130.971,31.145-210.132-7.662-218.992c-91.999-20.957-143.996,187.555-143.996,187.555
					S777.968,1249.233,759.708,1271.952z"/>
			</g>
		</g>
		<g>
			<g>
				<path style="fill:#E09E83;" d="M1321.135,1506.933c49.38-63.322,33.072-217.386,32.55-307.071l-101.324,52.674l0.39,188.147
					C1252.751,1440.683,1280.422,1559.147,1321.135,1506.933z"/>
			</g>
			<g>
				<path style="fill:#B6BCCF;" d="M1237.282,1305.43l158.788-20.419c-14.687-31.374-15.988-68.333-17.625-84.928
					c-13.686-138.167-37.958-206.534-115.088-194.97c-77.083,11.505-33.934,235.876-33.934,235.876L1237.282,1305.43z"/>
			</g>
		</g>
		<g>
			<path style="fill:#EFA88B;" d="M577.922,1077.169c0,0,44.009-11.084,45.495,12.728c4.365,70.34-5.578,109.965-5.578,109.965
				l105.623,143.434c0,0,65.571,79.936,21.925,117.921c-43.642,38.002-122.377-54.613-180.853-266.882
				C564.533,1194.335,522.3,1107.425,577.922,1077.169z"/>
			<g>
				<path style="fill:#3896A2;" d="M671.957,1023.172c-90.459-67.478-225.754-46.265-225.754-46.265l228.746,262.331
					c0,0,98.107-14.078,228.746,70.357L671.957,1023.172z"/>
				<path style="fill:#4CC4D2;" d="M739.567,1025.321c0,0,141.894-81.683,314.182-18.512l222.502,323.595
					c0,0-274.918-99.775-307.924-20.809L739.567,1025.321z"/>
				<path style="fill:#2C808A;" d="M671.957,1023.172l2.991-8.97c-90.428-67.488-228.746-48.406-228.746-48.406v11.111
					C446.203,976.907,581.498,955.694,671.957,1023.172z"/>
				<g>
					<polygon style="fill:#3998A3;" points="1053.749,995.674 1053.749,1006.809 1276.251,1330.404 1276.251,1319.291 					"/>
				</g>
				<g>
					<path style="fill:#45B0BD;" d="M1053.749,995.674c-172.288-63.186-314.182,18.528-314.182,18.528v11.118
						c0,0,141.894-81.683,314.182-18.512V995.674z"/>
				</g>
				<path style="fill:#45B0BD;" d="M671.957,1023.172c0,0,44.87,26.969,67.61,2.149l228.76,284.275c0,0-17.279,21.802-64.633,0
					L671.957,1023.172z"/>
				<path style="fill:#3998A3;" d="M671.957,1023.172c0,0,44.843,26.94,67.605,2.173l0.056-10.872
					c-22.913,24.643-64.669-0.27-64.669-0.27l-2.991,8.733V1023.172z"/>
				<path style="fill:#BEBFB8;" d="M674.813,956.892c19.004,25.606,26.704,53.084,29.479,66.616
					c3.045-3.973,7.196-9.091,12.562-14.892L674.813,956.892z"/>
				<path style="fill:#D3D4CB;" d="M739.567,1014.507v-0.305c0,0,135.38-77.517,302.121-22.375l-11.771-18.058
					c-196.904-98.053-302.143,18.484-326.285,50.579C715.85,1026.375,729.462,1025.321,739.567,1014.507z"/>
				<path style="fill:#CACCC3;" d="M452.388,965.102c0.668-0.058,1.764-0.148,3.264-0.27c32.228-2.869,142.749-7.741,219.296,49.371
					c0,0,13.661,7.886,29.561,10.268c-6.356-32.036-41.549-153.341-205.94-115.835l1.474,15.281c0,0-16.014,1.493-30.423,8.696
					l-0.982,13.109c0,0-11.881,3.966-17.288,11.171v8.314c0,0,0.448-0.043,0.691-0.07
					C452.186,965.122,452.259,965.122,452.388,965.102z"/>
			</g>
			<path style="fill:#EFA88B;" d="M1293.401,1396.358c-100.644-60.838-166.671-111.191-190.225-141.785
				c-26.95-34.979-25.698-32.309-50.477-52.331c-24.769-20.019-40.541-10.146-33.042-0.59c9.15,11.659,17.281,17.018,19.444,21.245
				c-14.267-9.997-41.329-23.035-56.608-26.09c-27.673-5.554-55.366,13.232-40.716,38.173
				c49.406,84.369,111.412,62.598,122.793,71.359c108.778,177.224,210.213,238.344,247.844,210.052
				C1344.078,1492.607,1331.973,1419.651,1293.401,1396.358z"/>
			<path style="fill:#EFA88B;" d="M617.839,1199.862c0.477-17.369,25.254-61.5,18.504-98.944
				c-4.803-26.665-58.421-65.091-75.768,7.157"/>
		</g>
	</g>
	<g>
		<path style="fill:#95211D;" d="M1709.692,1200.315l-51.322,99.434c38.991,30.967,51.322,64.43,51.322,64.43
			c-45.164-5.81-97.149,75.4-156.237,75.4v-166.276C1609.634,1273.303,1662.375,1193.153,1709.692,1200.315z"/>
		<path style="fill:#3F0000;" d="M1553.455,1273.303c0,0,52.57,13.162,52.57,73.12l-52.57,41.69V1273.303z"/>
		<path style="fill:#B62C29;" d="M1360.429,1591.006c101.821-50.014,185.421-75.064,245.596-87.595v-156.988
			c-45.909,6.031-138.771,22.343-245.596,63.797V1591.006z"/>
		<path style="fill:#580000;" d="M1360.429,1410.221c0,0,82.747-5.226,82.747,49.483c0,0-39.758,49.724-82.747,32.575V1410.221z"/>
		<path style="fill:#95211D;" d="M411.628,1200.315l51.318,99.434c-38.987,30.967-51.318,64.43-51.318,64.43
			c45.174-5.81,97.149,75.4,156.238,75.4v-166.276C511.684,1273.303,458.946,1193.153,411.628,1200.315z"/>
		<path style="fill:#3F0000;" d="M567.866,1273.303c0,0-52.57,13.162-52.57,73.12l52.57,41.69V1273.303z"/>
		<path style="fill:#B62C29;" d="M760.897,1591.006c-101.821-50.014-185.426-75.064-245.601-87.595v-156.988
			c45.91,6.031,138.776,22.343,245.601,63.797V1591.006z"/>
		<path style="fill:#580000;" d="M760.897,1410.221c0,0-82.754-5.226-82.754,49.483c0,0,39.758,49.724,82.754,32.575V1410.221z"/>
		<path style="fill:#B62C29;" d="M1060.66,1697.953c216.831,0,382.516-71.985,382.516-71.985v-166.264
			c0,0-124.214,71.975-382.516,71.975s-382.517-71.975-382.517-71.975v166.264C678.143,1625.968,843.827,1697.953,1060.66,1697.953z
			"/>
	</g>
</g>
</svg>
